<svg width="53" height="45" viewBox="0 0 53 45" fill="none" xmlns="http://www.w3.org/2000/svg">
<path d="M21.8273 41.0365C21.539 41.0368 21.2534 40.9886 20.987 40.8948C20.7207 40.801 20.4787 40.6634 20.2751 40.49L10.1145 31.8574C9.7029 31.5076 9.47168 31.0332 9.47168 30.5386C9.47168 30.044 9.7029 29.5697 10.1145 29.2199L20.2751 20.5836C20.6871 20.2338 21.2457 20.0374 21.8281 20.0376C22.4105 20.0378 22.9689 20.2345 23.3806 20.5845C23.7923 20.9345 24.0234 21.4091 24.0232 21.9039C24.023 22.3987 23.7915 22.8732 23.3795 23.223L14.7733 30.5386L23.3795 37.8524C23.6865 38.1133 23.8955 38.4456 23.9801 38.8074C24.0648 39.1692 24.0213 39.5442 23.8552 39.885C23.6891 40.2258 23.4078 40.517 23.0468 40.722C22.6858 40.927 22.2615 41.0364 21.8273 41.0365Z" fill="#E1DDDD"/>
<path d="M34.4382 32.4037H11.6668C11.0845 32.4037 10.5261 32.2072 10.1144 31.8574C9.70262 31.5076 9.47131 31.0331 9.47131 30.5384C9.47131 30.0437 9.70262 29.5693 10.1144 29.2195C10.5261 28.8697 11.0845 28.6732 11.6668 28.6732H34.4382C35.6024 28.6722 36.7186 28.2788 37.5418 27.5794C38.365 26.88 38.828 25.9317 38.8291 24.9426V5.59576C38.8291 5.10105 39.0604 4.62661 39.4722 4.2768C39.8839 3.92699 40.4423 3.73047 41.0246 3.73047C41.6069 3.73047 42.1653 3.92699 42.577 4.2768C42.9888 4.62661 43.2201 5.10105 43.2201 5.59576V24.9426C43.2177 26.9208 42.2918 28.8174 40.6453 30.2162C38.9989 31.615 36.7666 32.4018 34.4382 32.4037Z" fill="#E1DDDD"/>
</svg>
