<svg width="50" height="50" viewBox="0 0 50 50" fill="none" xmlns="http://www.w3.org/2000/svg">
<path d="M41.6666 8.33334H12.5C10.2021 8.33334 8.33331 10.2021 8.33331 12.5V22.9167H12.5V16.6667L25.8333 26.6667C26.1941 26.9368 26.6326 27.0828 27.0833 27.0828C27.534 27.0828 27.9726 26.9368 28.3333 26.6667L41.6666 16.6667V35.4167H25V39.5833H41.6666C43.9646 39.5833 45.8333 37.7146 45.8333 35.4167V12.5C45.8333 10.2021 43.9646 8.33334 41.6666 8.33334ZM27.0833 22.3958L13.8875 12.5H40.2791L27.0833 22.3958Z" fill="#EBE6E6"/>
<path d="M4.16669 25H18.75V29.1667H4.16669V25ZM8.33335 31.25H20.8334V35.4167H8.33335V31.25ZM14.5834 37.5H22.9167V41.6667H14.5834V37.5Z" fill="#EBE6E6"/>
</svg>
