<svg width="50" height="50" viewBox="0 0 50 50" fill="none" xmlns="http://www.w3.org/2000/svg">
<path d="M34.5125 45.8312H34.5708C35.6708 45.8312 36.7104 45.3979 37.4979 44.6104L43.1479 38.9604C43.3415 38.7671 43.4952 38.5375 43.6 38.2848C43.7048 38.032 43.7587 37.7611 43.7587 37.4875C43.7587 37.2139 43.7048 36.943 43.6 36.6902C43.4952 36.4375 43.3415 36.2079 43.1479 36.0146L34.8146 27.6812C34.6213 27.4876 34.3917 27.334 34.1389 27.2292C33.8862 27.1244 33.6153 27.0704 33.3417 27.0704C33.068 27.0704 32.7971 27.1244 32.5444 27.2292C32.2916 27.334 32.062 27.4876 31.8687 27.6812L28.5479 31.0021C27.0083 30.5437 24.1354 29.5021 22.3146 27.6812C20.4937 25.8604 19.4521 22.9875 18.9937 21.4479L22.3146 18.1271C22.5082 17.9338 22.6618 17.7042 22.7666 17.4514C22.8715 17.1987 22.9254 16.9278 22.9254 16.6542C22.9254 16.3805 22.8715 16.1096 22.7666 15.8569C22.6618 15.6041 22.5082 15.3745 22.3146 15.1812L13.9812 6.84791C13.583 6.47197 13.056 6.26256 12.5083 6.26256C11.9606 6.26256 11.4337 6.47197 11.0354 6.84791L5.38748 12.4979C4.59582 13.2896 4.14998 14.3771 4.16665 15.4875C4.21457 18.4542 4.99998 28.7583 13.1208 36.8792C21.2417 45 31.5458 45.7833 34.5125 45.8312ZM12.5104 11.2667L17.8979 16.6542L15.2042 19.3479C14.959 19.5924 14.7789 19.8943 14.6803 20.2261C14.5817 20.558 14.5677 20.9092 14.6396 21.2479C14.6896 21.4875 15.9125 27.1687 19.3708 30.6271C22.8292 34.0854 28.5104 35.3083 28.75 35.3583C29.0886 35.4306 29.44 35.4167 29.7719 35.3181C30.1038 35.2195 30.4057 35.0392 30.65 34.7937L33.3437 32.1L38.7312 37.4875L34.5521 41.6646C31.9521 41.6208 23.0562 40.9229 16.0667 33.9312C9.05415 26.9187 8.37498 17.9917 8.33332 15.4437L12.5104 11.2667ZM41.6646 22.9146H45.8312C45.8312 12.2271 37.7625 4.16666 27.0604 4.16666V8.33332C35.5229 8.33332 41.6646 14.4646 41.6646 22.9146Z" fill="#EBE6E6"/>
<path d="M27.0813 16.6667C31.4625 16.6667 33.3313 18.5354 33.3313 22.9167H37.498C37.498 16.1979 33.8 12.5 27.0813 12.5V16.6667Z" fill="#EBE6E6"/>
</svg>
